<svg xmlns="http://www.w3.org/2000/svg" xmlns:xlink="http://www.w3.org/1999/xlink" aria-hidden="true" role="img" class="iconify iconify--logos" width="31.88" height="32" preserveAspectRatio="xMidYMid meet" viewBox="0 0 256 257"><defs><linearGradient id="IconifyId1813088fe1fbc01fb466" x1="-.828%" x2="57.636%" y1="7.652%" y2="78.411%"><stop offset="0%" stop-color="#41D1FF"></stop><stop offset="100%" stop-color="#BD34FE"></stop></linearGradient><linearGradient id="IconifyId1813088fe1fbc01fb467" x1="43.376%" x2="50.316%" y1="2.242%" y2="89.03%"><stop offset="0%" stop-color="#FFBD4F"></stop><stop offset="100%" stop-color="#FF980E"></stop></linearGradient></defs><path fill="url(#IconifyId1813088fe1fbc01fb466)" d="M255.153 37.938L134.897 252.976c-2.483 4.44-8.862 4.466-11.382.048L.875 37.958c-2.746-4.316 1.371-9.25 6.827-8.054l120.385 21.517a6.537 6.537 0 0 0 2.322-.004l117.867-21.483c5.438-1.011 9.676 3.657 7.277 8.004z"></path><path fill="url(#IconifyId1813088fe1fbc01fb467)" d="M185.432.063L96.44 0C90.757 0 86.2 4.486 86.2 10.044v17.11c0 5.558 4.557 10.044 10.24 10.044h35.95l.103 117.384c0 5.558 4.557 10.044 10.24 10.044h17.24c5.683 0 10.24-4.486 10.24-10.044V27.119h35.94c5.683 0 10.24-4.486 10.24-10.044V10.044C185.432 4.486 180.875.063 175.192.063z"></path></svg>
